<?xml version="1.0" encoding="UTF-8"?>
<!DOCTYPE svg PUBLIC "-//W3C//DTD SVG 1.1//EN" "http://www.w3.org/Graphics/SVG/1.1/DTD/svg11.dtd">
<svg xmlns="http://www.w3.org/2000/svg" version="1.1" width="587px" height="234px" style="shape-rendering:geometricPrecision; text-rendering:geometricPrecision; image-rendering:optimizeQuality; fill-rule:evenodd; clip-rule:evenodd" xmlns:xlink="http://www.w3.org/1999/xlink">
<g><path style="opacity:1" fill="#6571be" d="M 115.5,69.5 C 136.144,67.1609 154.144,72.8275 169.5,86.5C 170.583,87.365 170.749,88.365 170,89.5C 167.651,92.0168 165.151,94.3501 162.5,96.5C 152.147,86.8302 139.814,81.8302 125.5,81.5C 118.001,82.1392 110.668,83.3059 103.5,85C 100.003,82.417 96.3359,80.0836 92.5,78C 94.4828,76.1111 96.8162,74.7777 99.5,74C 104.956,72.4732 110.289,70.9732 115.5,69.5 Z"/></g>
<g><path style="opacity:0.994" fill="#191919" d="M 333.5,87.5 C 340.342,87.0385 347.009,87.8718 353.5,90C 354.33,94.4263 354.33,98.9263 353.5,103.5C 348.603,101.929 343.603,101.429 338.5,102C 337.299,102.903 336.465,104.069 336,105.5C 335.501,109.821 335.334,114.154 335.5,118.5C 339.167,118.5 342.833,118.5 346.5,118.5C 346.5,122.5 346.5,126.5 346.5,130.5C 342.833,130.5 339.167,130.5 335.5,130.5C 335.5,137.833 335.5,145.167 335.5,152.5C 338.5,152.5 341.5,152.5 344.5,152.5C 344.5,156.5 344.5,160.5 344.5,164.5C 333.833,164.5 323.167,164.5 312.5,164.5C 312.5,160.5 312.5,156.5 312.5,152.5C 315.167,152.5 317.833,152.5 320.5,152.5C 320.5,145.167 320.5,137.833 320.5,130.5C 317.833,130.5 315.167,130.5 312.5,130.5C 312.5,126.5 312.5,122.5 312.5,118.5C 315.167,118.5 317.833,118.5 320.5,118.5C 320.171,111.759 320.671,105.092 322,98.5C 324.437,93.2262 328.271,89.5595 333.5,87.5 Z"/></g>
<g><path style="opacity:0.985" fill="#191919" d="M 371.5,87.5 C 378.361,86.9651 385.028,87.7984 391.5,90C 392.586,94.4438 392.586,98.9438 391.5,103.5C 388.027,102.758 384.527,102.091 381,101.5C 377.279,101.221 374.945,102.888 374,106.5C 373.501,110.486 373.334,114.486 373.5,118.5C 377.167,118.5 380.833,118.5 384.5,118.5C 384.5,122.5 384.5,126.5 384.5,130.5C 380.833,130.5 377.167,130.5 373.5,130.5C 373.5,137.833 373.5,145.167 373.5,152.5C 376.5,152.5 379.5,152.5 382.5,152.5C 382.5,156.5 382.5,160.5 382.5,164.5C 371.833,164.5 361.167,164.5 350.5,164.5C 350.5,160.5 350.5,156.5 350.5,152.5C 353.167,152.5 355.833,152.5 358.5,152.5C 358.5,145.167 358.5,137.833 358.5,130.5C 355.833,130.5 353.167,130.5 350.5,130.5C 350.5,126.5 350.5,122.5 350.5,118.5C 353.167,118.5 355.833,118.5 358.5,118.5C 357.988,110.995 358.822,103.661 361,96.5C 363.489,92.1675 366.989,89.1675 371.5,87.5 Z"/></g>
<g><path style="opacity:0.987" fill="#191919" d="M 212.5,91.5 C 223.768,90.8085 234.768,92.1418 245.5,95.5C 245.5,104.833 245.5,114.167 245.5,123.5C 240.5,123.5 235.5,123.5 230.5,123.5C 229.968,117.848 229.635,112.181 229.5,106.5C 211.174,102.32 200.84,109.486 198.5,128C 200.493,145.971 210.493,153.304 228.5,150C 233.792,148.794 238.625,146.628 243,143.5C 244.652,148.099 245.652,152.765 246,157.5C 238.174,162.736 229.507,165.069 220,164.5C 196.017,164.185 183.517,152.018 182.5,128C 183.31,108.043 193.31,95.876 212.5,91.5 Z"/></g>
<g><path style="opacity:0.989" fill="#191919" d="M 271.5,108.5 C 299.896,107.397 311.063,120.73 305,148.5C 299.993,159.675 291.326,165.008 279,164.5C 266.406,164.915 257.739,159.248 253,147.5C 247.631,128.688 253.798,115.688 271.5,108.5 Z M 275.5,121.5 C 283.69,120.195 288.856,123.528 291,131.5C 292.592,139.062 290.425,145.229 284.5,150C 276.584,152.455 271.084,149.955 268,142.5C 266.89,136.574 267.556,130.908 270,125.5C 271.812,124.023 273.645,122.69 275.5,121.5 Z"/></g>
<g><path style="opacity:0.992" fill="#191919" d="M 409.5,108.5 C 433.933,105.932 445.266,116.932 443.5,141.5C 431.149,141.168 418.815,141.501 406.5,142.5C 409.449,148.812 414.449,151.812 421.5,151.5C 427.475,150.929 432.642,148.595 437,144.5C 438.369,148.273 439.536,152.106 440.5,156C 436.825,160.178 432.158,162.844 426.5,164C 404.322,167.981 391.989,158.814 389.5,136.5C 389.691,122.339 396.358,113.006 409.5,108.5 Z M 415.5,120.5 C 424.583,119.529 429.583,123.529 430.5,132.5C 422.16,132.666 413.827,132.5 405.5,132C 406.522,129.455 407.688,126.955 409,124.5C 411.095,122.875 413.261,121.542 415.5,120.5 Z"/></g>
<g><path style="opacity:0.992" fill="#191919" d="M 468.5,108.5 C 492.908,105.907 504.241,116.907 502.5,141.5C 490.149,141.168 477.815,141.501 465.5,142.5C 468.449,148.812 473.449,151.812 480.5,151.5C 486.281,150.465 491.614,148.465 496.5,145.5C 497.03,149.285 498.03,152.952 499.5,156.5C 496.715,159.4 493.382,161.566 489.5,163C 458.728,168.893 445.562,156.393 450,125.5C 453.841,117.153 460.008,111.487 468.5,108.5 Z M 474.5,120.5 C 482.584,119.912 487.584,123.579 489.5,131.5C 481.167,132.833 472.833,132.833 464.5,131.5C 465.815,125.858 469.148,122.191 474.5,120.5 Z"/></g>
<g><path style="opacity:1" fill="#632d8d" d="M 81.5,84.5 C 86.1371,85.8159 90.1371,88.1493 93.5,91.5C 78.8445,104.046 72.6779,120.046 75,139.5C 76.6627,153.318 82.8294,164.652 93.5,173.5C 90.6392,177.014 86.9725,179.347 82.5,180.5C 68.4397,167.515 61.4397,151.348 61.5,132C 61.7603,113.33 68.427,97.4965 81.5,84.5 Z"/></g>
<g><path style="opacity:0.25" fill="#2c2d34" d="M 209.5,175.5 C 209.833,176.167 210.167,176.833 210.5,177.5C 200.481,177.369 190.147,177.035 179.5,176.5C 189.552,175.11 199.552,174.776 209.5,175.5 Z"/></g>
<g><path style="opacity:0.418" fill="#4b4b4f" d="M 210.5,177.5 C 210.167,176.833 209.833,176.167 209.5,175.5C 225.719,174.57 242.053,174.903 258.5,176.5C 242.368,177.242 226.368,177.575 210.5,177.5 Z"/></g>
<g><path style="opacity:0.21" fill="#4c4c50" d="M 259.5,175.5 C 341.448,175.189 423.448,175.522 505.5,176.5C 424.685,176.537 344.185,176.87 264,177.5C 262.014,177.431 260.514,176.765 259.5,175.5 Z"/></g>
<g><path style="opacity:1" fill="#2e308c" d="M 161.5,168.5 C 164.731,170.22 167.564,172.553 170,175.5C 170.667,176.5 170.667,177.5 170,178.5C 149.079,196.281 125.579,200.448 99.5,191C 97.3359,190.086 95.3359,188.919 93.5,187.5C 97.1431,184.865 100.81,182.199 104.5,179.5C 125.862,187.227 144.862,183.56 161.5,168.5 Z"/></g>
</svg>
